<?xml version="1.0" encoding="utf-8"?>
<!-- Generator: Adobe Illustrator 16.0.0, SVG Export Plug-In . SVG Version: 6.00 Build 0)  -->
<!DOCTYPE svg PUBLIC "-//W3C//DTD SVG 1.1//EN" "http://www.w3.org/Graphics/SVG/1.1/DTD/svg11.dtd">
<svg version="1.1" id="Layer_1" xmlns="http://www.w3.org/2000/svg" xmlns:xlink="http://www.w3.org/1999/xlink" x="0px" y="0px"
	 width="218.74px" height="119.694px" viewBox="0 0 218.74 119.694" enable-background="new 0 0 218.74 119.694"
	 xml:space="preserve">
<g>
	<g>
		<path fill="#ED1C24" d="M111.767,69.892c3.242,3.2,6.746,5.213,9.955,4.762c2.352-0.325,4.135-2.117,3.227-4.337
			c-1.488-3.611-5.969-3.766-10.297-3.552c-0.383-0.713-0.758-1.467-1.119-2.275c-2.197-4.867-3.949-11.364-4.727-18.108
			c-0.8-6.919-9.188-7.404-8.932,0.464c0.146,4.45,3.196,11.668,7.394,17.645c0.613,0.875,1.253,1.718,1.905,2.531
			c-1.446,0.031-2.851,0.024-4.215-0.018C53.81,65.445,56.477,13.332,56.477,13.306C57.314-4.247,43.398-2.841,41.142,8.299
			c0,0-2.075,6.19,1.374,19.203c8.327,31.371,33.984,49.418,62.442,43.77l0.192-0.036C106.599,70.945,109.092,70.372,111.767,69.892
			 M123.123,70.779c0.398,1.352-0.764,2.179-2.131,2.08c-1.613-0.121-3.252-1.436-4.795-3.594
			C119.673,68.926,122.652,69.134,123.123,70.779"/>
		<path d="M174.818,46.562h-3.447v16.051h0.268h3.18V46.562z M143.316,46.544h-3.445v16.068h0.266h3.18V46.544z M10.618,42.622
			h7.602v-2.937H0v2.937h7.479v19.721h3.139V42.622z M29.751,62.342h2.771v-9.766c0.086-3.693-2.94-5.731-6.036-5.831
			c-1.166,0.042-2.327,0.354-3.308,0.932v-7.992h-2.704v22.657h2.758v-9.646c0.02-0.334,0.053-0.624,0.094-0.875l0.071-0.33
			c0.454-1.345,1.747-2.033,3.089-2.07c1.523,0.043,2.999,0.922,3.232,2.644c0.038,0.271,0.033,0.477,0.033,0.477V62.342z
			 M38.127,53.104c0.198-1.185,0.617-2.097,1.252-2.741c0.646-0.639,1.479-0.962,2.488-0.962c1.007,0,1.816,0.323,2.413,0.962
			c0.597,0.645,0.935,1.557,1.001,2.741H38.127z M38.067,54.881h10v-0.376c0-2.337-0.562-4.202-1.689-5.592
			c-1.119-1.392-2.626-2.087-4.511-2.087c-1.957,0-3.545,0.721-4.777,2.151c-1.223,1.427-1.84,3.274-1.84,5.56
			c0,1.52,0.294,2.863,0.868,4.025c0.592,1.154,1.366,2.071,2.337,2.756c0.967,0.684,2.236,1.023,3.797,1.023
			c1.146,0,2.146-0.126,2.986-0.389c0.855-0.259,1.713-0.695,2.58-1.302V57.75c-1.566,1.217-3.275,1.822-5.13,1.822
			c-1.327,0-2.415-0.422-3.261-1.269C38.594,57.457,38.142,56.318,38.067,54.881 M128.953,52.572v-0.159
			c0-3.758-3.148-5.851-6.295-5.929l-0.002,0.262l-0.012-0.262c-3.143,0.085-6.283,2.171-6.283,5.929l0.004,0.181v10.02h3.299
			V52.542l-0.006-0.048l0.031-0.386c0.227-1.575,1.541-2.375,2.969-2.428c1.428,0.053,2.744,0.853,2.961,2.421l0.031,0.408v0.045
			l-0.006,10.059h3.309V52.572z M132.693,62.619h3.496V35.278h-3.764v27.341H132.693z M143.076,43.633
			c0.385-0.405,0.592-0.909,0.582-1.468c0.004-0.562-0.197-1.075-0.582-1.465c-0.385-0.4-0.877-0.612-1.426-0.609
			c-0.518-0.003-0.998,0.229-1.377,0.645c-0.383,0.398-0.584,0.892-0.584,1.43c0,0.548,0.201,1.052,0.584,1.468
			c0.379,0.403,0.859,0.623,1.377,0.619h0.018C142.205,44.252,142.697,44.037,143.076,43.633 M165.585,62.613h3.303V52.572v-0.159
			c0-3.758-3.146-5.851-6.289-5.929l-0.008,0.262l-0.008-0.262c-1.77,0.058-3.521,0.723-4.732,1.965
			c-1.213-1.242-2.963-1.907-4.732-1.965c-3.166,0.085-6.303,2.171-6.303,5.929l0.006,0.181v10.02h3.299l-0.002-10.071l-0.012-0.034
			h0.012l0.029-0.399c0.219-1.575,1.537-2.375,2.971-2.428c1.42,0.053,2.744,0.853,2.963,2.421l0.027,0.408v0.045l-0.008,10.059
			h3.502V52.542l-0.006-0.034l0.035-0.399c0.221-1.575,1.527-2.375,2.969-2.428c1.414,0.053,2.736,0.853,2.959,2.428l0.025,0.399
			v0.047V62.613z M174.496,43.651c0.389-0.406,0.59-0.91,0.588-1.473c0.002-0.565-0.199-1.075-0.588-1.472
			c-0.387-0.392-0.877-0.599-1.422-0.594c-0.525-0.005-1,0.22-1.381,0.641c-0.381,0.396-0.586,0.89-0.586,1.425
			c0,0.552,0.205,1.056,0.586,1.466c0.381,0.403,0.861,0.63,1.381,0.63h0.008C173.628,44.274,174.117,44.053,174.496,43.651
			 M188.394,61.826l0.129-0.073v-3.505l-0.408,0.261c-1.139,0.719-2.189,1.072-3.172,1.072c-1.252-0.032-1.795-0.679-1.834-2.402
			h0.002v-7.06h4.658v-3.301h-4.66v-3.6l-6.008,6.227v0.411v0.263h2.564v6.329c0,1.42,0.055,2.376,0.18,2.935
			c0.137,0.518,0.295,0.944,0.494,1.288c0.201,0.331,0.445,0.631,0.744,0.895c0.926,0.86,2.109,1.299,3.486,1.299h0.021
			C185.957,62.864,187.236,62.519,188.394,61.826 M193.296,52.833c0.207-0.99,0.588-1.746,1.119-2.283
			c0.604-0.588,1.35-0.883,2.305-0.883c0.957,0,1.67,0.295,2.217,0.877c0.496,0.535,0.809,1.288,0.91,2.289H193.296z
			 M193.201,55.142h9.979v-0.637c0.004-2.375-0.568-4.312-1.742-5.762c-1.164-1.454-2.77-2.19-4.717-2.188
			c-2.023-0.003-3.709,0.758-4.979,2.249c-1.277,1.478-1.908,3.4-1.902,5.732c0,1.554,0.291,2.94,0.891,4.149
			c0.602,1.181,1.412,2.138,2.414,2.847c1.033,0.728,2.361,1.079,3.961,1.079c1.164,0,2.18-0.133,3.062-0.402
			c0.889-0.27,1.768-0.721,2.658-1.336l0.111-0.083v-3.586l-0.432,0.329c-1.523,1.188-3.174,1.773-4.971,1.773
			c-1.271,0-2.275-0.394-3.064-1.194C193.736,57.373,193.314,56.396,193.201,55.142 M214.992,59.447h-1.988
			c-1.287,0.002-2.184-0.096-2.615-0.254c-0.457-0.16-0.891-0.482-1.316-0.978c-0.697-0.798-1.055-1.963-1.055-3.523
			c0.002-1.657,0.393-2.491,1.213-3.473c0.82-0.942,1.885-1.404,3.273-1.404c0.836,0,1.656,0.201,2.488,0.619V59.447z
			 M218.455,62.613V36.952h-3.463v0.263v9.943c-1.039-0.364-2.02-0.548-2.936-0.548c-2.176,0-4.002,0.769-5.414,2.299
			c-1.396,1.499-2.109,3.08-2.105,5.415c0,2.488,0.664,4.513,2.004,6.021c1.352,1.504,3.182,2.268,5.406,2.268h0.014H218.455z"/>
		<rect x="1.955" y="90.539" width="83.343" height="29.155"/>
		<rect x="85.298" y="90.539" fill="#ED1C24" width="133.442" height="29.155"/>
		<path fill="#FFFFFF" d="M170.136,101.917c-1.125-0.525-2.922,0.096-3.721,0.603c0.43-3.251,0.686-6.69,1.408-9.652
			c-0.242-0.955-1.799-1.538-2.512-0.601c-0.582,3.529-1.105,7.815-1.408,11.967c-0.148,2.024-0.895,4.292,0,5.426
			c0.467,0.111,1.258,0.18,1.709,0c0.949-2.066,1.285-4.742,3.314-5.73c0.869,1.678,0.562,4.534,1.209,6.437
			c0.682,0.331,1.678,0.563,2.211,0C171.796,107.682,172.458,103.007,170.136,101.917 M179.484,95.586
			c0.236-1.958-2.896-2.954-2.914-1.109C176.554,95.55,178.365,96.304,179.484,95.586 M158.875,99.306
			c-0.078-1.775,1.084-3.624,0.301-5.127c-3.178-1.114-2.066,3.744-3.115,5.429c-1.961-0.141-4.902,0.88-3.012,2.714
			c0.98,0.109,2.035-0.242,2.711-0.104c0.037,2.504-0.973,7.702,2.01,6.936c1.072-1.799-0.225-5.321,0.908-7.334
			c1.516-0.209,3.787-0.036,3.719-1.407C162.333,99.158,160.281,99.538,158.875,99.306 M55.134,95.185
			c-0.93-0.029-1.226,1.779-1.607,2.611c-0.35,0.747-0.818,1.546-0.603,2.21c1.446,0.672,3.049-1.466,3.217-2.81
			C56.222,96.513,55.869,95.205,55.134,95.185 M20.849,97.898c-0.785,1.181-1.335,2.562-2.007,4.12
			c-0.351,0.809-1.361,3.935-2.312,3.923c-0.627-0.012-1.132-1.372-1.307-1.91c-0.592-1.795-0.372-3.524,0-5.129
			c-0.372-0.637-1.288-1.081-2.011-0.603c-1.17,0.774-0.936,5.348-0.104,7.138c0.906,1.938,2.183,2.991,4.126,3.12
			c-0.201,1.666-0.382,2.902-0.402,4.818c-0.021,1.895-0.411,4.898,1.707,4.524c1.572-0.272,0.777-3.188,0.901-5.423
			c0.188-3.245,1.304-7.871,2.418-10.658C22.565,100.042,23.941,97.355,20.849,97.898 M147.921,98.599
			c-0.854,0.302-0.824,1.465-1.111,2.413c-0.627,2.095-1.723,3.585-3.516,4.322c-1.586-0.898,0.465-5.635-0.908-6.231
			c-0.678-0.291-1.002,0.416-1.605,0.709c-0.602,3.087-1.221,8.76,3.215,8.039c1.244-0.473,2.156-1.805,3.016-2.316
			c-0.113,2.757,0.479,7.59-2.01,7.743c-0.623,0.037-1.109-0.671-1.906-0.604c-0.676,0.057-1.311,0.62-1.309,1.308
			c0.006,1.033,1.721,2.031,2.713,2.114c1.062,0.084,2.281-0.455,2.918-1.008c2.334-2.051,2.209-6.439,2.209-10.651
			C149.626,102.131,150.343,97.755,147.921,98.599 M131.736,102.52c-0.072-1.79,0.238-4.731-2.01-3.717
			c-0.83,3.604,0.16,8.585,0.504,12.464c0.838,0.729,1.838-0.076,2.209-0.5c-0.314-3.911,0.867-8.593,3.32-9.953
			c0.682-0.377,1.602-0.245,1.607-1.407C134.648,98.526,132.72,100.697,131.736,102.52 M207.13,99.004
			c-3.285-0.14-5.506,1.602-6.434,3.918c-1.426,3.552,0.869,7.969,4.525,6.534c0.191,1.644,0.514,6.287-0.807,6.639
			c-1.754,0.462-3.094-3.581-4.723-2.517c-0.848,2.131,1.709,4.057,3.717,4.623c0.785,0.228,1.938,0.26,2.414,0.102
			c1.887-0.628,1.977-4.714,2.012-7.536c0.029-3.425,0.24-7.662,0.9-10.156C208.207,100.073,207.746,99.458,207.13,99.004
			 M205.72,101.917c-0.25,2.328,0.096,6.216-2.713,5.334c-0.941-2.786,0.457-5.651,3.02-6.14
			C206.494,101.225,205.767,101.679,205.72,101.917 M191.656,99.407c-2.295-0.95-4.389,0.845-5.338,2.412
			c0.055-1.254-1.77-1.567-2.406-0.707c0.352,3.196,0.383,6.721,0.695,9.957c2.33,1.298,2.453-0.903,2.719-3.02
			c0.119-0.955,0.107-2.034,0.305-2.916c0.256-1.199,1.414-4.071,2.512-3.919c1.148,0.163,1.119,3.752,1.305,5.123
			c0.281,2.049,0.607,3.779,1.205,5.234c0.727,0.519,1.764,0.43,2.213-0.305c-0.029-0.873-0.633-1.751-0.801-2.812
			C193.527,105.092,194.144,100.445,191.656,99.407 M62.071,103.529c-0.137-1.223,0.376-2.172,0.1-3.216
			c-0.361-0.427-1.217-0.682-1.809-0.307c-0.909,3.194-0.731,8.043-0.906,11.864c0.591,0.787,1.923,0.426,2.212-0.197
			c0.332-3.495,1.509-6.976,3.617-8.65c0.82-0.65,2.224-0.364,2.515-1.707C65.173,100.197,63.027,102.345,62.071,103.529
			 M111.83,104.234c-0.527,1.683-0.898,3.359-1.508,4.222c-0.359-1.203-0.676-2.219-0.904-3.624
			c-0.197-1.222,0.107-2.933-0.502-4.118c-0.533-1.042-2.077-0.884-2.312,0.201c-0.17,0.806,0.247,2.449,0.401,3.521
			c0.156,1.06,0.435,2.287,0.704,3.313c0.403,1.517,1.442,5.164,3.517,4.523c0.896-0.271,2.088-4.321,2.312-5.021
			c0.701-2.177,1.268-3.624,1.605-5.837C113.205,99.407,112.431,102.317,111.83,104.234 M46.488,100.208
			c-0.95,1.748-1.611,3.652-2.611,5.326c-1,1.663-2.086,3.344-3.521,4.526c-0.924-2.462,0.933-7.234-0.701-8.345
			c-0.439,0.035-0.827,0.119-1.211,0.201c-0.594,0.809-0.536,2.388-0.599,3.92c-0.141,3.109-0.112,6.744,2.41,6.836
			c2.793,0.108,3.314-3.414,4.719-4.624c-0.018,1.831-0.018,3.645,0.606,4.826c0.559,0.278,1.6,0.308,1.911-0.202
			c-0.107-2.38-0.107-4.662,0.302-7.236C48.191,102.899,49.749,99.306,46.488,100.208 M179.792,100.814
			c-0.492-1.095-2.113-0.923-2.418,0.101c0.184,3.766,0.344,7.565,0.604,11.259c0.697,0.428,1.512,0.212,2.01-0.303
			c0.59-2.56,0.012-6.36-0.1-9.044C179.851,101.96,179.97,101.225,179.792,100.814 M100.266,100.713
			c-2.404-0.802-4.301,1.278-5.121,2.714c-0.293,0.515-0.338,1.179-0.604,1.607c-0.278,0.443-0.828,0.605-0.909,1.107
			c-0.041,0.307,0.23,0.773,0.305,1.109c0.238,1.029,0.406,2.274,1.005,3.014c1.205,1.465,5.507,2.576,5.731-0.509
			c-0.682-0.794-1.769,0.183-2.612,0.104c-0.952-0.089-1.371-0.781-1.611-1.811c2.476-0.204,5.184-1.907,5.53-3.719
			C102.327,102.509,101.352,101.069,100.266,100.713 M96.552,106.142c0.385-1.83,1.341-3.084,2.915-3.719
			C100.407,104.447,98.309,105.837,96.552,106.142 M29.801,101.415c-2.14,0.45-4.085,3.283-4.426,5.837
			c-0.536,4.045,3.351,5.715,6.034,3.314c1.547-1.383,3.189-4.153,2.813-6.535C33.933,102.167,31.992,100.957,29.801,101.415
			 M28.191,109.66c-0.6-2.838,0.739-5.319,2.912-6.031c0.085-0.35-0.184-0.422,0-0.605l0.202,0.103
			C32.138,106.046,30.352,108.74,28.191,109.66 M124.796,107.952c-1.748-0.415-3.947,0.995-5.328-0.202
			c3.502,0.202,7.369-4.308,3.623-6.434c-3.146-0.163-4.91,1.064-5.527,3.423c-0.209,0.258-0.543,0.395-0.705,0.698
			c0.248,1.286-0.188,1.684,0.098,2.612c0.461,1.518,2.963,2.452,5.129,2.216C123.505,110.107,126.464,109.162,124.796,107.952
			 M122.49,103.325c0.111,1.536-1.438,2.153-3.021,2.315C119.474,103.924,120.828,103.053,122.49,103.325 M74.034,102.217
			c-1.552,0.229-3.391,1.699-4.024,3.22c-0.179,0.422-0.151,0.899-0.306,1.308c-0.135,0.389-0.361,0.583-0.399,1.005
			c-0.124,1.619,0.909,3.873,2.017,4.225c1.14,0.36,4.597-0.286,4.214-1.811c-0.432-1.742-3.332,0.747-3.817-0.707
			c2.373-0.356,4.923-1.92,5.329-3.922C77.44,103.618,76.262,101.895,74.034,102.217 M71.718,106.947
			c0.412-1.502,1.497-2.862,3.22-2.713C75.026,105.868,73.376,107.056,71.718,106.947"/>
	</g>
</g>
</svg>
